<?xml version="1.0" encoding="UTF-8"?>
<svg version="1.1" xmlns="http://www.w3.org/2000/svg" width="512" height="512" viewBox="0 0 512 512">
  <path d="M0 0 C25.74 0 51.48 0 78 0 C85.425 13.365 85.425 13.365 93 27 C99.92827688 39.04231902 99.92827688 39.04231902 107 51 C107.37592285 51.63470215 107.7518457 52.2694043 108.13916016 52.92333984 C110.09852444 56.07982907 111.52648588 57.69589242 115 59 C118.13263938 59.31131615 118.13263938 59.31131615 121.66912842 59.2784729 C122.33816515 59.2842653 123.00720189 59.2900577 123.69651246 59.29602563 C125.93672131 59.31302121 128.17672409 59.3159017 130.41699219 59.31884766 C132.02347824 59.32814615 133.62995946 59.33831471 135.23643494 59.34928894 C139.59761897 59.37661191 143.95877066 59.39174516 148.32001781 59.40471697 C152.87779136 59.42033745 157.43549875 59.44713112 161.9932251 59.4727478 C170.62393826 59.51955477 179.25466384 59.5562896 187.88543916 59.58942068 C197.71126248 59.62762851 207.5370194 59.67704218 217.36278677 59.72740483 C237.57514291 59.83075322 257.78754065 59.91960669 278 60 C278 68.58 278 77.16 278 86 C276.02515625 86.03738281 274.0503125 86.07476562 272.015625 86.11328125 C269.42706409 86.17893316 266.83852328 86.24538076 264.25 86.3125 C262.94804687 86.33505859 261.64609375 86.35761719 260.3046875 86.38085938 C259.05429687 86.41630859 257.80390625 86.45175781 256.515625 86.48828125 C255.36352539 86.51446533 254.21142578 86.54064941 253.02441406 86.56762695 C249.7350312 87.03788019 248.33552502 87.67515364 246 90 C244.82889551 92.8596006 244.82889551 92.8596006 245 96 C246.49768164 98.77599224 246.49768164 98.77599224 249 101 C252.17540136 101.77729264 252.17540136 101.77729264 255.734375 101.70703125 C257.02988281 101.73603516 258.32539063 101.76503906 259.66015625 101.79492188 C261.02343512 101.80131071 262.3867166 101.8071633 263.75 101.8125 C265.12894569 101.83564971 266.50785607 101.86101607 267.88671875 101.88867188 C271.2581019 101.94761214 274.62818438 101.98384418 278 102 C278.11627503 105.58305992 278.1872736 109.16563417 278.25 112.75 C278.28351563 113.76578125 278.31703125 114.7815625 278.3515625 115.828125 C278.45080252 123.37036672 278.45080252 123.37036672 276.109375 126.640625 C272.99454958 128.64795694 271.28639433 129.12634616 267.61038208 129.13803101 C266.68785645 129.14348434 265.76533081 129.14893768 264.81484985 129.15455627 C263.29219009 129.15611977 263.29219009 129.15611977 261.73876953 129.15771484 C260.67200989 129.16279556 259.60525024 129.16787628 258.50616455 129.17311096 C256.18386793 129.18383098 253.86156087 129.19244473 251.53924942 129.19923019 C247.86659538 129.21098942 244.19406051 129.23043415 240.52145386 129.25234985 C230.07733101 129.31406951 219.63321992 129.36805295 209.18896484 129.40136719 C202.80641426 129.42227716 196.42407995 129.45755147 190.04165268 129.50212479 C187.60557471 129.51631492 185.16945846 129.52501398 182.73334122 129.52817917 C179.32866944 129.53307118 175.92457467 129.55618571 172.52001953 129.58349609 C171.50896149 129.58048996 170.49790344 129.57748383 169.45620728 129.5743866 C168.52804199 129.58547958 167.59987671 129.59657257 166.64358521 129.60800171 C165.43624568 129.61296693 165.43624568 129.61296693 164.20451546 129.61803246 C161.41456857 130.10143535 160.03340064 131.0510516 158 133 C156.89494749 139.41410912 159.49462333 143.5987693 162.625 148.9375 C163.11572998 149.80157471 163.60645996 150.66564941 164.11206055 151.5559082 C165.72384239 154.38111895 167.35896112 157.19169298 169 160 C169.82636963 161.42022461 169.82636963 161.42022461 170.66943359 162.86914062 C172.97148465 166.823895 175.27751299 170.77623342 177.59423828 174.72241211 C181.82123714 181.93192726 185.93685937 189.19704383 190 196.5 C195.1312424 205.72048094 200.39166922 214.85491872 205.73461914 223.95410156 C210.64173008 232.33320545 215.40396622 240.78893454 220.11914062 249.27734375 C220.65603516 250.24285156 221.19292969 251.20835937 221.74609375 252.203125 C222.27082275 253.15002197 222.79555176 254.09691895 223.33618164 255.07250977 C224.51176799 257.14095524 225.72295193 259.1893609 226.95874023 261.22241211 C227.59884033 262.2769458 228.23894043 263.33147949 228.8984375 264.41796875 C229.4867334 265.36696045 230.0750293 266.31595215 230.68115234 267.29370117 C232.3805594 270.78091465 232.4530554 273.38481469 231.85546875 277.16015625 C230.67251379 279.70431966 229.40585102 280.55398258 227 282 C224.09688568 282.37604749 224.09688568 282.37604749 220.64685059 282.37752342 C218.67396938 282.38925829 218.67396938 282.38925829 216.66123199 282.40123022 C215.19798155 282.39474377 213.73473234 282.38797378 212.27148438 282.38095093 C210.71995463 282.38440628 209.16842734 282.38917002 207.61690521 282.39513266 C203.34660681 282.4076892 199.07650881 282.40145121 194.80620956 282.39217401 C190.20355603 282.38540285 185.60093763 282.39585512 180.99829102 282.40411377 C171.97902003 282.417474 162.95982381 282.41456318 153.94054985 282.40587585 C146.61229716 282.39910871 139.28406546 282.39817837 131.95581055 282.4014473 C130.91397157 282.401907 129.8721326 282.40236669 128.79872274 282.40284032 C126.6824398 282.40379947 124.56615686 282.40477211 122.44987392 282.4057581 C102.59189426 282.4143187 82.7339561 282.40446735 62.87598324 282.388357 C45.82615553 282.37495321 28.7763891 282.37728112 11.7265625 282.39111328 C-8.05894734 282.40715726 -27.84442078 282.41349466 -47.62993622 282.40427649 C-49.73856099 282.40332081 -51.84718577 282.4023777 -53.95581055 282.4014473 C-54.99337321 282.40098447 -56.03093587 282.40052164 -57.09993982 282.40004479 C-64.42186003 282.39745135 -71.74375719 282.40183351 -79.06567383 282.40888596 C-87.98510826 282.41728804 -96.90446346 282.41504809 -105.82388878 282.39904372 C-110.37725563 282.39114356 -114.93049024 282.38809901 -119.4838562 282.39799118 C-123.64868393 282.4069026 -127.8132563 282.40206425 -131.97806072 282.38605852 C-133.48809398 282.38269559 -134.99814861 282.38443855 -136.50816822 282.39168589 C-138.55438102 282.40075656 -140.60065388 282.38969437 -142.64685059 282.37752342 C-143.78536217 282.37703637 -144.92387375 282.37654931 -146.09688568 282.37604749 C-149.31981278 281.95857387 -150.68083412 281.23227968 -153 279 C-154.75302212 275.04594388 -154.49407433 271.30200058 -152.97998047 267.31201172 C-151.41249292 264.27345686 -149.71224616 261.35985403 -147.9375 258.4375 C-147.30134766 257.34759766 -146.66519531 256.25769531 -146.00976562 255.13476562 C-144.02634054 251.74437891 -142.01377719 248.37242265 -140 245 C-138.23253825 241.98547732 -136.47388231 238.96595424 -134.71606445 235.94580078 C-133.56794022 233.97492768 -132.41671118 232.00586014 -131.26245117 230.03857422 C-126.99829226 222.76417537 -122.85261909 215.42904737 -118.75 208.0625 C-114.57830018 200.57294705 -110.35766537 193.12475519 -105.9765625 185.75585938 C-101.11441856 177.55493802 -96.41865655 169.25773088 -91.70751953 160.96948242 C-90.73081299 159.25402222 -90.73081299 159.25402222 -89.734375 157.50390625 C-89.10644043 156.40006592 -88.47850586 155.29622559 -87.83154297 154.15893555 C-85.67166117 150.43370086 -83.41180734 146.77741271 -81.10107422 143.14404297 C-79.22340957 139.48780107 -79.29304073 137.02966781 -80 133 C-82.793683 130.28789209 -84.77927819 129.62487941 -88.62339783 129.62145996 C-89.54722763 129.61325729 -90.47105743 129.60505463 -91.42288208 129.59660339 C-92.42922699 129.60275162 -93.4355719 129.60889984 -94.47241211 129.61523438 C-96.07058022 129.60717522 -96.07058022 129.60717522 -97.70103455 129.59895325 C-100.01455305 129.58916906 -102.32810828 129.58623302 -104.64164543 129.58930969 C-108.3022557 129.59378043 -111.96238067 129.57980804 -115.62294006 129.56091309 C-123.39445208 129.52409659 -131.1659136 129.51041463 -138.9375 129.5 C-147.93889628 129.48793137 -156.94005684 129.46643692 -165.94134712 129.41999817 C-169.54928397 129.40640284 -173.15692479 129.41060362 -176.76487732 129.41540527 C-178.97598653 129.40606586 -181.18709245 129.39589734 -183.39819336 129.38476562 C-184.90467438 129.39398796 -184.90467438 129.39398796 -186.44158936 129.40339661 C-195.05155646 129.32718151 -195.05155646 129.32718151 -199 126 C-200.25248502 123.49502996 -200.11374406 121.79146726 -200.09765625 118.9921875 C-200.09443359 118.00605469 -200.09121094 117.01992188 -200.08789062 116.00390625 C-200.07951172 114.97136719 -200.07113281 113.93882812 -200.0625 112.875 C-200.05798828 111.83472656 -200.05347656 110.79445313 -200.04882812 109.72265625 C-200.03701952 107.14838038 -200.02055075 104.57421854 -200 102 C-198.71367676 101.99383667 -198.71367676 101.99383667 -197.40136719 101.98754883 C-194.21015559 101.96053031 -191.02025755 101.91140722 -187.82958984 101.84741211 C-186.45047803 101.82425961 -185.0711901 101.80984274 -183.69189453 101.80444336 C-181.70581105 101.79513583 -179.71998274 101.75148515 -177.734375 101.70703125 C-176.54038086 101.6913208 -175.34638672 101.67561035 -174.11621094 101.65942383 C-170.83099822 101.25328364 -170.83099822 101.25328364 -168.57910156 98.65112305 C-166.73347104 96.06682574 -166.73347104 96.06682574 -167 92.875 C-168.17859836 89.48652971 -168.93260544 88.76908564 -172 87 C-175.09151231 86.49682807 -175.09151231 86.49682807 -178.515625 86.48828125 C-180.39121094 86.43510742 -180.39121094 86.43510742 -182.3046875 86.38085938 C-183.60664063 86.35830078 -184.90859375 86.33574219 -186.25 86.3125 C-187.56742188 86.27833984 -188.88484375 86.24417969 -190.2421875 86.20898438 C-193.49449171 86.1264984 -196.74723267 86.06157327 -200 86 C-200 77.42 -200 68.84 -200 60 C-197.96902664 59.99413376 -195.93805328 59.98826752 -193.84553528 59.98222351 C-174.73073856 59.92559611 -155.61605533 59.85253678 -136.50137806 59.76428509 C-126.67369979 59.71930741 -116.84605792 59.67989729 -107.01831055 59.65356445 C-98.45307636 59.63060035 -89.88795718 59.59722011 -81.32281417 59.55129844 C-76.78705394 59.52734479 -72.25140776 59.50863006 -67.71558571 59.50238609 C-63.44658175 59.49634492 -59.17786967 59.47638021 -54.90897369 59.44572449 C-53.34207624 59.43692872 -51.77514067 59.43322486 -50.20821953 59.43499184 C-48.06826947 59.43664311 -45.92921074 59.41995932 -43.78938293 59.39872742 C-41.99326931 59.39181397 -41.99326931 59.39181397 -40.16087055 59.38476086 C-36.67483394 58.96041876 -34.80528567 58.07315238 -32 56 C-30.29938032 53.85974794 -30.29938032 53.85974794 -28.94140625 51.3359375 C-28.39726074 50.39032959 -27.85311523 49.44472168 -27.29248047 48.47045898 C-26.72158691 47.44895752 -26.15069336 46.42745605 -25.5625 45.375 C-24.65975342 43.79344116 -24.65975342 43.79344116 -23.73876953 42.17993164 C-21.81179291 38.79435812 -19.90421066 35.3984238 -18 32 C-16.70447725 29.6991905 -15.40890471 27.39840904 -14.11328125 25.09765625 C-11.23455057 19.97538865 -8.36983849 14.84552081 -5.51708984 9.70874023 C-3.69819594 6.46113356 -1.8467651 3.23183892 0 0 Z M31 23 C30.33387009 26.70389259 30.437871 30.31141144 30.5625 34.0625 C30.56830078 35.05572266 30.57410156 36.04894531 30.58007812 37.07226562 C30.58872401 43.34107589 30.58872401 43.34107589 33 49 C35.88599388 51.35618542 35.88599388 51.35618542 39.5 50.8125 C42.87762534 50.0284084 44.03313985 49.73175021 46 47 C47.93118218 43.13763565 47.31534465 38.43658819 47.375 34.1875 C47.41238281 33.18912109 47.44976562 32.19074219 47.48828125 31.16210938 C47.58107576 25.07186387 47.58107576 25.07186387 44.6640625 19.83984375 C42.10800771 17.81981989 42.10800771 17.81981989 39 17.375 C34.79362993 18.2513271 33.566469 19.54233642 31 23 Z M32 73 C29.85931965 77.2813607 30.73193275 82.94136464 30.70483398 87.69360352 C30.68764766 89.79445052 30.64376401 91.89371201 30.59960938 93.99414062 C30.58947948 95.33592595 30.5809643 96.67772464 30.57421875 98.01953125 C30.55963623 99.23745361 30.54505371 100.45537598 30.5300293 101.71020508 C31.08937653 105.6256357 32.21043879 107.24517017 35 110 C37.89706707 111.24677006 37.89706707 111.24677006 41 111 C43.74716387 109.22960551 45.53145922 107.93708156 47 105 C47.25789144 100.77235896 47.27101954 96.54090056 47.29516602 92.30639648 C47.31235234 90.20554948 47.35623599 88.10628799 47.40039062 86.00585938 C47.41052052 84.66407405 47.4190357 83.32227536 47.42578125 81.98046875 C47.44036377 80.76254639 47.45494629 79.54462402 47.4699707 78.28979492 C46.91062347 74.3743643 45.78956121 72.75482983 43 70 C37.87652594 68.14682853 35.76219715 69.23780285 32 73 Z M-146 88 C-148.34549674 91.51824511 -148.57991403 92.85775694 -148 97 C-145.37865004 100.34086999 -143.88852348 101.83180776 -139.66601562 102.63110352 C-138.42529297 102.63037842 -137.18457031 102.62965332 -135.90625 102.62890625 C-134.90253357 102.63252419 -134.90253357 102.63252419 -133.87854004 102.63621521 C-132.46991015 102.63523979 -131.06124049 102.62191848 -129.65283203 102.59692383 C-127.50550193 102.56258798 -125.36228751 102.57627926 -123.21484375 102.59570312 C-121.84112845 102.58880411 -120.46742369 102.57913119 -119.09375 102.56640625 C-117.85302734 102.55552979 -116.61230469 102.54465332 -115.33398438 102.53344727 C-111.41678586 101.90668403 -109.72462444 100.84919508 -107 98 C-106.45948305 94.21638135 -106.45237432 91.9909417 -108.3125 88.625 C-112.66914215 84.42971496 -119.76898199 85.81401701 -125.39672852 85.81469727 C-127.42680854 85.81251151 -129.45634423 85.79434403 -131.48632812 85.77539062 C-132.76830078 85.77345703 -134.05027344 85.77152344 -135.37109375 85.76953125 C-137.1334436 85.76336792 -137.1334436 85.76336792 -138.93139648 85.75708008 C-141.92489246 85.99405426 -143.54659686 86.31759639 -146 88 Z M-87 89 C-88.56430248 92.12860495 -88.35627284 94.55602925 -88 98 C-85.28343737 100.86163728 -83.58489663 101.90641483 -79.66601562 102.53344727 C-78.42529297 102.54432373 -77.18457031 102.5552002 -75.90625 102.56640625 C-75.23710571 102.57260483 -74.56796143 102.57880341 -73.87854004 102.58518982 C-72.46998543 102.5922638 -71.06134679 102.58915619 -69.65283203 102.57641602 C-67.50526349 102.56253402 -65.36204566 102.5966598 -63.21484375 102.63476562 C-61.84114477 102.63571686 -60.46744038 102.63385777 -59.09375 102.62890625 C-57.85302734 102.62963135 -56.61230469 102.63035645 -55.33398438 102.63110352 C-51.11238118 101.83197901 -49.6285802 100.33266418 -47 97 C-46.24984805 93.95691709 -46.24984805 93.95691709 -47 91 C-48.8670991 88.69724444 -50.35647741 87.32176129 -53 86 C-57.08615281 85.76567375 -61.17400386 85.77160036 -65.26635742 85.75976562 C-67.29452939 85.75008577 -69.32167642 85.71907468 -71.34960938 85.6875 C-72.63287109 85.68234375 -73.91613281 85.6771875 -75.23828125 85.671875 C-76.41430908 85.6625293 -77.59033691 85.65318359 -78.80200195 85.64355469 C-82.31963159 86.03562578 -84.18689644 86.89073399 -87 89 Z M127 88 C124.65450326 91.51824511 124.42008597 92.85775694 125 97 C127.62134996 100.34086999 129.11147652 101.83180776 133.33398438 102.63110352 C134.57470703 102.63037842 135.81542969 102.62965332 137.09375 102.62890625 C138.09746643 102.63252419 138.09746643 102.63252419 139.12145996 102.63621521 C140.53008985 102.63523979 141.93875951 102.62191848 143.34716797 102.59692383 C145.49449807 102.56258798 147.63771249 102.57627926 149.78515625 102.59570312 C151.15887155 102.58880411 152.53257631 102.57913119 153.90625 102.56640625 C155.14697266 102.55552979 156.38769531 102.54465332 157.66601562 102.53344727 C161.58321414 101.90668403 163.27537556 100.84919508 166 98 C166.54051695 94.21638135 166.54762568 91.9909417 164.6875 88.625 C160.33085785 84.42971496 153.23101801 85.81401701 147.60327148 85.81469727 C145.57319146 85.81251151 143.54365577 85.79434403 141.51367188 85.77539062 C140.23169922 85.77345703 138.94972656 85.77152344 137.62890625 85.76953125 C135.8665564 85.76336792 135.8665564 85.76336792 134.06860352 85.75708008 C131.07510754 85.99405426 129.45340314 86.31759639 127 88 Z M186 89 C184.43569752 92.12860495 184.64372716 94.55602925 185 98 C187.71656263 100.86163728 189.41510337 101.90641483 193.33398438 102.53344727 C194.57470703 102.54432373 195.81542969 102.5552002 197.09375 102.56640625 C197.76289429 102.57260483 198.43203857 102.57880341 199.12145996 102.58518982 C200.53001457 102.5922638 201.93865321 102.58915619 203.34716797 102.57641602 C205.49473651 102.56253402 207.63795434 102.5966598 209.78515625 102.63476562 C211.15885523 102.63571686 212.53255962 102.63385777 213.90625 102.62890625 C215.14697266 102.62963135 216.38769531 102.63035645 217.66601562 102.63110352 C221.88761882 101.83197901 223.3714198 100.33266418 226 97 C226.75015195 93.95691709 226.75015195 93.95691709 226 91 C224.1329009 88.69724444 222.64352259 87.32176129 220 86 C215.91384719 85.76567375 211.82599614 85.77160036 207.73364258 85.75976562 C205.70547061 85.75008577 203.67832358 85.71907468 201.65039062 85.6875 C200.36712891 85.68234375 199.08386719 85.6771875 197.76171875 85.671875 C196.58569092 85.6625293 195.40966309 85.65318359 194.19799805 85.64355469 C190.68036841 86.03562578 188.81310356 86.89073399 186 89 Z M31 134 C30.30947447 136.96999674 30.36858908 139.84159122 30.44140625 142.87890625 C30.44373764 143.72799057 30.44606903 144.57707489 30.44847107 145.45188904 C30.45818804 147.2413848 30.47992806 149.03085073 30.51293945 150.82006836 C30.56239955 153.55694171 30.57442513 156.29201663 30.58007812 159.02929688 C30.59416337 160.77085243 30.61036752 162.51239241 30.62890625 164.25390625 C30.63426895 165.07065323 30.63963165 165.88740021 30.64515686 166.72889709 C30.69556626 172.20039914 30.69556626 172.20039914 33 177 C35.88599388 179.35618542 35.88599388 179.35618542 39.5 178.8125 C42.87762534 178.0284084 44.03313985 177.73175021 46 175 C48.52019445 169.95961111 47.31316406 162.07059617 47.35009766 156.46118164 C47.36665215 154.6173032 47.39393569 152.77348881 47.43212891 150.92993164 C47.48695665 148.26935595 47.50877979 145.61028363 47.5234375 142.94921875 C47.54610687 142.12822189 47.56877625 141.30722504 47.59213257 140.46134949 C47.5762722 136.15419556 47.38649399 134.49774278 44.65478516 130.97973633 C42.13091816 128.80725236 42.13091816 128.80725236 39 128.375 C34.87491025 129.2343937 33.5799074 130.68542942 31 134 Z M31 211 C30.25590469 214.60276384 30.29911858 218.1439434 30.3359375 221.8125 C30.33115387 222.85897705 30.32637024 223.9054541 30.32144165 224.98364258 C30.31804452 227.19256089 30.32723375 229.40152961 30.34814453 231.61035156 C30.37491104 234.9887721 30.34838857 238.36387014 30.31640625 241.7421875 C30.31971038 243.89063232 30.32611667 246.03907508 30.3359375 248.1875 C30.32581635 249.19594971 30.31569519 250.20439941 30.30526733 251.2434082 C30.38415316 255.97071091 30.44940178 258.26632588 33.35400391 262.13671875 C35.88955485 264.18405363 35.88955485 264.18405363 39 264.625 C43.19469592 263.75110502 44.42408103 262.43242137 47 259 C47.74409531 255.39723616 47.70088142 251.8560566 47.6640625 248.1875 C47.67123795 246.61778442 47.67123795 246.61778442 47.67855835 245.01635742 C47.68195548 242.80743911 47.67276625 240.59847039 47.65185547 238.38964844 C47.62508896 235.0112279 47.65161143 231.63612986 47.68359375 228.2578125 C47.68028962 226.10936768 47.67388333 223.96092492 47.6640625 221.8125 C47.67924423 220.29982544 47.67924423 220.29982544 47.69473267 218.7565918 C47.61584684 214.02928909 47.55059822 211.73367412 44.64599609 207.86328125 C42.11044515 205.81594637 42.11044515 205.81594637 39 205.375 C34.80530408 206.24889498 33.57591897 207.56757863 31 211 Z " fill="#ffffff" transform="translate(217,213)"/>
<path d="M0 0 C50.82 0 101.64 0 154 0 C154 67.65 154 135.3 154 205 C136.84 205 119.68 205 102 205 C101.6875 181.875 101.6875 181.875 101.61206055 174.60498047 C101.57975976 172.69236311 101.5463845 170.77976346 101.51171875 168.8671875 C101.50547485 167.88306885 101.49923096 166.8989502 101.49279785 165.88500977 C101.38069741 160.52457046 101.03889838 156.61247495 98 152 C91.6361561 146.11344439 85.57584729 146.7243951 77.3125 146.625 C76.15298828 146.58761719 74.99347656 146.55023438 73.79882812 146.51171875 C67.53530984 146.44762362 62.89377831 146.80080956 57.57495117 150.23583984 C52.46780216 155.95654342 52.53572638 162.47107243 52.48828125 169.74609375 C52.47164429 170.64332153 52.45500732 171.54054932 52.43786621 172.46496582 C52.38040908 175.78890998 52.34789973 179.11324776 52.3125 182.4375 C52.209375 189.883125 52.10625 197.32875 52 205 C34.84 205 17.68 205 0 205 C0 137.35 0 69.7 0 0 Z M21.49243164 23.60546875 C17.11888646 29.44809028 17.28299752 35.44299495 17.4375 42.5 C17.42654297 43.58925781 17.41558594 44.67851563 17.40429688 45.80078125 C17.46301641 52.27558825 18.04262837 57.6908612 22 63 C28.73810259 68.36297961 34.42555791 68.23877654 42.6875 68.3125 C44.28368164 68.35600586 44.28368164 68.35600586 45.91210938 68.40039062 C52.40528872 68.45252857 57.67523932 67.9822857 63 64 C68.45261412 57.1492797 68.26958795 51.22150645 68.375 42.8125 C68.41238281 41.70068359 68.44976562 40.58886719 68.48828125 39.44335938 C68.56361592 32.37445631 67.99414947 27.25907614 63 22 C56.89386032 16.97515589 50.66495294 17.39688404 43 17.5 C41.85015625 17.48453125 40.7003125 17.4690625 39.515625 17.453125 C31.92431002 17.48810802 26.88660466 17.86100206 21.49243164 23.60546875 Z M88.64550781 24.70532227 C85.30357755 30.33771521 85.43473485 36.17836406 85.5625 42.5625 C85.55541016 43.56474609 85.54832031 44.56699219 85.54101562 45.59960938 C85.5987898 52.35029989 86.10730712 57.69970039 90.71875 62.9609375 C91.3065625 63.42757812 91.894375 63.89421875 92.5 64.375 C93.38171875 65.09816406 93.38171875 65.09816406 94.28125 65.8359375 C99.10282415 69.10145817 105.10732103 68.26270661 110.6875 68.3125 C112.28368164 68.35600586 112.28368164 68.35600586 113.91210938 68.40039062 C120.47584078 68.45309508 125.5678452 67.89204937 131 64 C137.09031238 57.59736391 136.24690142 51.07099834 136.3125 42.6875 C136.34150391 41.46353516 136.37050781 40.23957031 136.40039062 38.97851562 C136.52726476 30.15944967 136.52726476 30.15944967 132 23 C125.54217313 17.17220502 119.64185057 17.72518902 111.3125 17.625 C110.15298828 17.58761719 108.99347656 17.55023438 107.79882812 17.51171875 C99.75553656 17.42941105 93.84756899 18.15586349 88.64550781 24.70532227 Z M20.5625 93.0625 C17.38625984 99.03383151 17.70809281 104.55896015 17.625 111.1875 C17.58761719 112.29931641 17.55023438 113.41113281 17.51171875 114.55664062 C17.43638408 121.62554369 18.00585053 126.74092386 23 132 C29.10613968 137.02484411 35.33504706 136.60311596 43 136.5 C44.14984375 136.51546875 45.2996875 136.5309375 46.484375 136.546875 C53.17107082 136.51606073 57.75682089 136.31469948 63 132 C68.70862551 125.92066051 68.73768187 119.50155034 68.5625 111.5 C68.57893555 109.86611328 68.57893555 109.86611328 68.59570312 108.19921875 C68.53698359 101.72441175 67.95737163 96.3091388 64 91 C57.26189741 85.63702039 51.57444209 85.76122346 43.3125 85.6875 C41.71631836 85.64399414 41.71631836 85.64399414 40.08789062 85.59960938 C31.92811057 85.53408921 25.81756103 86.45998742 20.5625 93.0625 Z M91.13671875 90.68359375 C90.65847656 91.26238281 90.18023437 91.84117187 89.6875 92.4375 C88.95080078 93.30181641 88.95080078 93.30181641 88.19921875 94.18359375 C84.92928355 99.1364272 85.74109693 105.55443342 85.6875 111.25 C85.65849609 112.26191406 85.62949219 113.27382812 85.59960938 114.31640625 C85.54602777 120.67200894 85.9217838 125.90607437 90 131 C94.22561082 135.21714527 98.37864148 136.29900195 104.2578125 136.59375 C106.54708224 136.58848125 108.83642486 136.55663516 111.125 136.5 C112.27871094 136.50257813 113.43242187 136.50515625 114.62109375 136.5078125 C121.29520823 136.43083309 126.54251722 136.22753143 131.64453125 131.46484375 C136.72804791 124.81716812 136.24825654 120.04851107 136.3125 111.8125 C136.34150391 110.59240234 136.37050781 109.37230469 136.40039062 108.11523438 C136.44925048 101.19592717 136.31955054 96.53927974 132 91 C125.11957962 85.66416379 119.5615272 85.78952343 111.1875 85.75 C110.10662109 85.729375 109.02574219 85.70875 107.91210938 85.6875 C101.15362904 85.65430918 96.35233212 85.97095358 91.13671875 90.68359375 Z " fill="#ffffff" transform="translate(341,51)"/>
<path d="M0 0 C50.82 0 101.64 0 154 0 C154 67.65 154 135.3 154 205 C136.84 205 119.68 205 102 205 C101.75 182.5 101.75 182.5 101.70214844 175.44335938 C101.67275626 173.57679816 101.64192648 171.71025879 101.609375 169.84375 C101.60768311 168.41530762 101.60768311 168.41530762 101.60595703 166.95800781 C101.47666354 160.87175302 100.57130453 156.04418384 97 151 C90.94866733 145.89947592 84.5787296 146.43023974 76.9375 146.5625 C75.77927734 146.55541016 74.62105469 146.54832031 73.42773438 146.54101562 C65.27484221 146.5740485 65.27484221 146.5740485 58 150 C54.22209211 154.08422475 52.89799155 157.14987906 52.79467773 162.6550293 C52.77449585 163.60889526 52.75431396 164.56276123 52.73352051 165.54553223 C52.71704468 166.54499878 52.70056885 167.54446533 52.68359375 168.57421875 C52.66494263 169.49513306 52.6462915 170.41604736 52.6270752 171.36486816 C52.55876591 174.80564765 52.49862459 178.24658538 52.4375 181.6875 C52.293125 189.380625 52.14875 197.07375 52 205 C34.84 205 17.68 205 0 205 C0 137.35 0 69.7 0 0 Z M22.35546875 22.53515625 C17.27195209 29.18283188 17.75174346 33.95148893 17.6875 42.1875 C17.65849609 43.40759766 17.62949219 44.62769531 17.59960938 45.88476562 C17.55074952 52.80407283 17.68044946 57.46072026 22 63 C28.88042038 68.33583621 34.4384728 68.21047657 42.8125 68.25 C44.43381836 68.2809375 44.43381836 68.2809375 46.08789062 68.3125 C52.84637096 68.34569082 57.64766788 68.02904642 62.86328125 63.31640625 C63.58064453 62.44822266 63.58064453 62.44822266 64.3125 61.5625 C64.80363281 60.98628906 65.29476562 60.41007812 65.80078125 59.81640625 C69.07071645 54.8635728 68.25890307 48.44556658 68.3125 42.75 C68.34150391 41.73808594 68.37050781 40.72617188 68.40039062 39.68359375 C68.45397223 33.32799106 68.0782162 28.09392563 64 23 C59.77438918 18.78285473 55.62135852 17.70099805 49.7421875 17.40625 C47.45291776 17.41151875 45.16357514 17.44336484 42.875 17.5 C41.72128906 17.49742188 40.56757812 17.49484375 39.37890625 17.4921875 C32.70479177 17.56916691 27.45748278 17.77246857 22.35546875 22.53515625 Z M89.49243164 23.60546875 C85.11888646 29.44809028 85.28299752 35.44299495 85.4375 42.5 C85.42654297 43.58925781 85.41558594 44.67851563 85.40429688 45.80078125 C85.46301641 52.27558825 86.04262837 57.6908612 90 63 C96.73810259 68.36297961 102.42555791 68.23877654 110.6875 68.3125 C112.28368164 68.35600586 112.28368164 68.35600586 113.91210938 68.40039062 C120.40528872 68.45252857 125.67523932 67.9822857 131 64 C136.45261412 57.1492797 136.26958795 51.22150645 136.375 42.8125 C136.41238281 41.70068359 136.44976562 40.58886719 136.48828125 39.44335938 C136.56361592 32.37445631 135.99414947 27.25907614 131 22 C124.89386032 16.97515589 118.66495294 17.39688404 111 17.5 C109.85015625 17.48453125 108.7003125 17.4690625 107.515625 17.453125 C99.92431002 17.48810802 94.88660466 17.86100206 89.49243164 23.60546875 Z M20.5625 92.5625 C16.88493503 98.29950135 17.73906985 104.72187262 17.6875 111.3125 C17.65849609 112.53646484 17.62949219 113.76042969 17.59960938 115.02148438 C17.47273524 123.84055033 17.47273524 123.84055033 22 131 C28.45782687 136.82779498 34.35814943 136.27481098 42.6875 136.375 C43.84701172 136.41238281 45.00652344 136.44976562 46.20117188 136.48828125 C52.39669629 136.55168059 57.35490852 136.41402456 62.42285156 132.58618164 C67.66222993 127.31679445 68.49329118 121.69630596 68.49804688 114.46289062 C68.46807617 112.96532227 68.46807617 112.96532227 68.4375 111.4375 C68.44458984 110.43525391 68.45167969 109.43300781 68.45898438 108.40039062 C68.4012102 101.64970011 67.89269288 96.30029961 63.28125 91.0390625 C62.39953125 90.33910156 62.39953125 90.33910156 61.5 89.625 C60.61828125 88.90183594 60.61828125 88.90183594 59.71875 88.1640625 C54.89717585 84.89854183 48.89267897 85.73729339 43.3125 85.6875 C41.71631836 85.64399414 41.71631836 85.64399414 40.08789062 85.59960938 C32.05449795 85.53510406 26.22150036 86.61329449 20.5625 92.5625 Z M88.5625 93.0625 C85.38625984 99.03383151 85.70809281 104.55896015 85.625 111.1875 C85.58761719 112.29931641 85.55023438 113.41113281 85.51171875 114.55664062 C85.43638408 121.62554369 86.00585053 126.74092386 91 132 C97.10613968 137.02484411 103.33504706 136.60311596 111 136.5 C112.14984375 136.51546875 113.2996875 136.5309375 114.484375 136.546875 C121.17107082 136.51606073 125.75682089 136.31469948 131 132 C136.70862551 125.92066051 136.73768187 119.50155034 136.5625 111.5 C136.57893555 109.86611328 136.57893555 109.86611328 136.59570312 108.19921875 C136.53698359 101.72441175 135.95737163 96.3091388 132 91 C125.26189741 85.63702039 119.57444209 85.76122346 111.3125 85.6875 C109.71631836 85.64399414 109.71631836 85.64399414 108.08789062 85.59960938 C99.92811057 85.53408921 93.81756103 86.45998742 88.5625 93.0625 Z " fill="#ffffff" transform="translate(17,51)"/>
<path d="M0 0 C0.6461879 -0.0087616 1.29237579 -0.01752319 1.95814514 -0.02655029 C4.08281674 -0.04846176 6.2053874 -0.03402484 8.33007812 -0.01708984 C9.81311439 -0.02046045 11.29614796 -0.02531511 12.7791748 -0.03158569 C15.88283669 -0.03894569 18.9857776 -0.02828105 22.08935547 -0.00488281 C26.06101619 0.02360611 30.03098759 0.00719721 34.00258636 -0.02274513 C37.06366629 -0.04084271 40.12434791 -0.03504918 43.18544006 -0.02210617 C44.6494212 -0.01877887 46.1134389 -0.02283551 47.57737732 -0.03450394 C49.62677287 -0.04725532 51.6734616 -0.02778482 53.72265625 0 C54.88671997 0.00397797 56.05078369 0.00795593 57.25012207 0.01205444 C61.32043665 0.84270237 62.82069345 2.42108229 65.36132812 5.64697266 C66.47782437 12.53795906 64.30276652 16.43381409 60.54882812 22.08447266 C60.05036377 22.8659668 59.55189941 23.64746094 59.03833008 24.45263672 C57.49614438 26.86210476 55.93043766 29.25497668 54.36132812 31.64697266 C53.46398106 33.03792435 52.56807998 34.42981026 51.67382812 35.82275391 C49.89095614 38.59418849 48.09817576 41.35886514 46.29882812 44.11962891 C43.01386156 49.16903425 39.77980041 54.25040333 36.54882812 59.33447266 C35.66880127 60.71880493 35.66880127 60.71880493 34.77099609 62.13110352 C32.96724671 64.96939235 31.16416856 67.8081064 29.36132812 70.64697266 C25.25251214 77.11697345 21.1399 83.58449288 17.01757812 90.04589844 C15.38727928 92.60621741 13.76468881 95.17130452 12.14257812 97.73681641 C11.15332194 99.29041018 10.16375613 100.84380687 9.17382812 102.39697266 C8.72821533 103.10635986 8.28260254 103.81574707 7.82348633 104.54663086 C5.85419196 107.62142679 4.4394929 109.59486281 1.36132812 111.64697266 C-3.54354531 112.20074869 -5.53846575 112.40336437 -9.63867188 109.58447266 C-11.58699011 106.72288025 -12.22901931 105.21225981 -12.11621094 101.78637695 C-11.01756876 96.86439261 -7.75508068 92.73383962 -5.01367188 88.58447266 C-4.33651123 87.53171143 -3.65935059 86.4789502 -2.96166992 85.39428711 C-1.55447598 83.20817215 -0.14090945 81.02614685 1.27880859 78.84814453 C3.82080501 74.94068181 6.31957698 71.00691804 8.81494141 67.06958008 C10.54304804 64.34359041 12.2774985 61.62173662 14.01367188 58.90087891 C17.22456211 53.86526099 20.42180133 48.82114515 23.61132812 43.77197266 C24.04598389 43.08449951 24.48063965 42.39702637 24.9284668 41.6887207 C29.76651098 34.02513735 34.56084877 26.33411507 39.36132812 18.64697266 C38.79613968 18.65807571 38.23095123 18.66917877 37.64863586 18.68061829 C31.76014019 18.79133278 25.87194065 18.8666895 19.98266602 18.92163086 C17.78560372 18.94675774 15.58862488 18.98086512 13.3918457 19.02416992 C10.23172408 19.08490027 7.07270855 19.11320099 3.91210938 19.13525391 C2.93172195 19.16106033 1.95133453 19.18686676 0.9412384 19.2134552 C-3.78327802 19.21539337 -5.91281651 19.20607055 -9.7565918 16.24536133 C-11.56823833 13.74421279 -12.32472149 12.67503363 -12.26367188 9.64697266 C-12.2765625 9.00759766 -12.28945312 8.36822266 -12.30273438 7.70947266 C-10.34879129 1.64075531 -5.87716692 0.0200841 0 0 Z " fill="#ffffff" transform="translate(11.638671875,374.35302734375)"/>
<path d="M0 0 C0.6461879 -0.0087616 1.29237579 -0.01752319 1.95814514 -0.02655029 C4.08281674 -0.04846176 6.2053874 -0.03402484 8.33007812 -0.01708984 C9.81311439 -0.02046045 11.29614796 -0.02531511 12.7791748 -0.03158569 C15.88283669 -0.03894569 18.9857776 -0.02828105 22.08935547 -0.00488281 C26.06101619 0.02360611 30.03098759 0.00719721 34.00258636 -0.02274513 C37.06366629 -0.04084271 40.12434791 -0.03504918 43.18544006 -0.02210617 C44.6494212 -0.01877887 46.1134389 -0.02283551 47.57737732 -0.03450394 C49.62677287 -0.04725532 51.6734616 -0.02778482 53.72265625 0 C54.88671997 0.00397797 56.05078369 0.00795593 57.25012207 0.01205444 C61.28247181 0.83495471 62.78611429 2.51243586 65.36132812 5.64697266 C66.02539062 7.70947266 66.02539062 7.70947266 65.98632812 9.64697266 C66.00566406 10.60603516 66.00566406 10.60603516 66.02539062 11.58447266 C64.91097185 15.04572627 63.2390586 16.43036983 60.36132812 18.64697266 C56.83892424 19.34020249 53.38863036 19.22943866 49.81054688 19.13525391 C48.79660355 19.12817917 47.78266022 19.12110443 46.73799133 19.11381531 C43.50751182 19.08588277 40.27878151 19.02314428 37.04882812 18.95947266 C34.85549383 18.93438841 32.66213229 18.91157546 30.46875 18.89111328 C25.0990151 18.8360602 19.73029659 18.75244538 14.36132812 18.64697266 C23.92675617 34.03275573 33.61202429 49.33431439 43.39599609 64.58203125 C46.59979903 69.57837188 49.79524013 74.58000361 52.98632812 79.58447266 C53.54199463 80.45346191 54.09766113 81.32245117 54.67016602 82.21777344 C56.24419765 84.68786596 57.80634948 87.16484597 59.36132812 89.64697266 C59.92480957 90.54262939 60.48829102 91.43828613 61.06884766 92.36108398 C61.61395996 93.2443335 62.15907227 94.12758301 62.72070312 95.03759766 C63.45885254 96.22724121 63.45885254 96.22724121 64.21191406 97.44091797 C65.92050418 100.72019162 66.06756863 103.0451461 65.36132812 106.64697266 C63.92382812 109.58447266 63.92382812 109.58447266 61.36132812 111.64697266 C58.21427481 112.36915094 55.47285125 112.5389776 52.36132812 111.64697266 C47.79725769 107.89218628 44.96776689 103.1892 41.92382812 98.20947266 C40.86057653 96.498193 39.79675147 94.78726955 38.73242188 93.07666016 C38.18054199 92.1855957 37.62866211 91.29453125 37.06005859 90.37646484 C34.2369392 85.84032302 31.36028087 81.33851243 28.48632812 76.83447266 C27.3013034 74.97387766 26.11640847 73.11319999 24.93164062 71.25244141 C24.34157227 70.32608887 23.75150391 69.39973633 23.14355469 68.4453125 C19.63781115 62.94081491 16.13496465 57.43447338 12.6315918 51.9284668 C9.60367763 47.16995078 6.57494439 42.411959 3.54492188 37.65478516 C2.91779297 36.66994141 2.29066406 35.68509766 1.64453125 34.67041016 C0.45209384 32.79784178 -0.74059667 30.92543453 -1.93359375 29.05322266 C-3.005348 27.36994552 -4.07480609 25.68520347 -5.14160156 23.9987793 C-6.12506584 22.45381657 -7.12021163 20.91621634 -8.12792969 19.38696289 C-8.58135742 18.69030518 -9.03478516 17.99364746 -9.50195312 17.27587891 C-9.90067627 16.67332275 -10.29939941 16.0707666 -10.71020508 15.44995117 C-12.50848862 11.95788597 -12.27245568 9.51305387 -11.63867188 5.64697266 C-8.05128646 1.09068807 -5.74339921 0.01962697 0 0 Z " fill="#ffffff" transform="translate(446.638671875,374.35302734375)"/>
<path d="M0 0 C7.41302438 3.47414085 15.84117914 10.30701835 18.80507421 18.12304449 C20.00733458 23.650575 19.75920066 29.22622591 19.58935547 34.84716797 C19.58539769 36.70142311 19.58764018 38.55570013 19.59555054 40.40994263 C19.59953856 45.4026547 19.51773426 50.3905779 19.41951513 55.38218451 C19.33149354 60.61359657 19.32373409 65.84514063 19.30715942 71.07717896 C19.2637902 80.96590039 19.1491097 90.8524332 19.00826657 100.74019444 C18.85132356 112.00480681 18.77469382 123.2695284 18.70453048 134.53496337 C18.55852394 157.69118506 18.31256553 180.84546946 18 204 C4.94146615 191.40848693 -1.10153506 176.44723323 -1.55343223 158.64359939 C-1.65467696 151.46751999 -1.57396908 144.30226085 -1.41951513 137.12756038 C-1.33070091 132.28996744 -1.32367334 127.45218933 -1.30715942 122.61390686 C-1.26401689 113.49397398 -1.14965626 104.37645144 -1.00826657 95.25756985 C-0.85060249 84.85849865 -0.77451557 74.45929902 -0.70453048 64.05932605 C-0.55903993 42.70488312 -0.31354019 21.35259467 0 0 Z " fill="#ffffff" transform="translate(307,29)"/>
<path d="M0 0 C0.35237131 22.35027032 0.61586552 44.70007466 0.77718258 67.0525713 C0.85411918 77.43435528 0.95875839 87.8144012 1.1315918 98.19506836 C1.28238431 107.25634 1.37816993 116.31635178 1.41132742 125.37884349 C1.4306741 130.16615278 1.47521672 134.94986221 1.58595085 139.73600197 C2.1168022 163.59112816 0.78848644 182.8386179 -15 202 C-16.485 202.99 -16.485 202.99 -18 204 C-18.37461222 179.76480216 -18.65631995 155.53004131 -18.82899475 131.29252625 C-18.91132149 120.03712895 -19.02344912 108.7835357 -19.20703125 97.52929688 C-19.36706304 87.7140556 -19.46985938 77.90012121 -19.50541592 68.08361149 C-19.5261869 62.89026537 -19.57459175 57.70065606 -19.69168091 52.5085144 C-20.46989143 16.66519229 -20.46989143 16.66519229 -12.26390076 7.39082336 C-4.23492218 0 -4.23492218 0 0 0 Z " fill="#ffffff" transform="translate(205,29)"/>
<path d="M0 0 C16.92591122 -0.3763398 33.85048963 -0.65713959 50.77964783 -0.82899475 C58.64310824 -0.91096824 66.50394734 -1.02238049 74.36572266 -1.20703125 C81.23066626 -1.36819025 88.0937101 -1.47011485 94.96049309 -1.50541592 C98.58653435 -1.52600794 102.20714932 -1.57315585 105.8314209 -1.69168091 C126.67231075 -2.34723783 139.13725383 1.28998872 155.29576111 14.32899475 C155.85815994 14.88042648 156.42055878 15.43185822 157 16 C157 16.66 157 17.32 157 18 C139.04064253 18.39871212 121.08244682 18.69766106 103.11960697 18.88080692 C94.77719978 18.96814187 86.4375558 19.08698903 78.09692383 19.2824707 C70.81930186 19.45295569 63.54368163 19.5618255 56.26411813 19.59950441 C52.41516757 19.62150593 48.57193798 19.67242471 44.72484016 19.79741096 C18.27847701 20.62452381 18.27847701 20.62452381 8.73483181 11.85046291 C0 2.57638237 0 2.57638237 0 0 Z " fill="#ffffff" transform="translate(319,17)"/>
<path d="M0 0 C3.66289577 0.10200448 7.32615273 0.10956997 10.99024963 0.12840652 C17.88694712 0.17757651 24.77944654 0.30805741 31.67431831 0.46999836 C39.54111474 0.65064078 47.40814295 0.73725018 55.27650642 0.81712532 C71.42342985 0.98308683 87.56616257 1.26335279 103.7099762 1.62230301 C102.4024124 3.2125833 101.08198715 4.79304475 99.72130299 6.33811855 C98.23367236 8.02756194 96.78480837 9.75131928 95.35803509 11.49246311 C90.77804792 16.67490687 87.28926644 20.23503996 80.07223511 20.94510269 C77.58477895 20.97662855 75.09608421 20.94853793 72.6096344 20.87108231 C71.22872162 20.86797207 69.84779072 20.86973567 68.46688843 20.87594986 C64.75115015 20.87908128 61.03939034 20.81484376 57.32456994 20.73763633 C53.43039654 20.66844003 49.53611179 20.66237703 45.64141846 20.64935684 C38.28147547 20.61529129 30.92334952 20.52520047 23.56420344 20.41451246 C15.17984339 20.29116686 6.7953923 20.23098292 -1.58965051 20.17586267 C-18.82415588 20.06116653 -36.05689718 19.86793606 -53.2900238 19.62230301 C-53.2900238 18.96230301 -53.2900238 18.30230301 -53.2900238 17.62230301 C-37.40317382 2.04525577 -21.51729363 -0.70368303 0 0 Z " fill="#ffffff" transform="translate(89.29002380371094,15.377696990966797)"/>
<path d="M0 0 C5.94 0 11.88 0 18 0 C18 14.19 18 28.38 18 43 C12.06 43 6.12 43 0 43 C0 28.81 0 14.62 0 0 Z " fill="#ffffff" transform="translate(409,213)"/>
<path d="M0 0 C5.94 0 11.88 0 18 0 C18 14.19 18 28.38 18 43 C12.06 43 6.12 43 0 43 C0 28.81 0 14.62 0 0 Z " fill="#ffffff" transform="translate(85,213)"/>
<path d="M0 0 C5.94 0 11.88 0 18 0 C18 5.94 18 11.88 18 18 C12.06 18 6.12 18 0 18 C0 12.06 0 6.12 0 0 Z " fill="#ffffff" transform="translate(443,153)"/>
<path d="M0 0 C5.94 0 11.88 0 18 0 C18 5.94 18 11.88 18 18 C12.06 18 6.12 18 0 18 C0 12.06 0 6.12 0 0 Z " fill="#ffffff" transform="translate(375,153)"/>
<path d="M0 0 C5.94 0 11.88 0 18 0 C18 5.94 18 11.88 18 18 C12.06 18 6.12 18 0 18 C0 12.06 0 6.12 0 0 Z " fill="#ffffff" transform="translate(119,153)"/>
<path d="M0 0 C5.94 0 11.88 0 18 0 C18 5.94 18 11.88 18 18 C12.06 18 6.12 18 0 18 C0 12.06 0 6.12 0 0 Z " fill="#ffffff" transform="translate(51,153)"/>
<path d="M0 0 C5.94 0 11.88 0 18 0 C18 5.94 18 11.88 18 18 C12.06 18 6.12 18 0 18 C0 12.06 0 6.12 0 0 Z " fill="#ffffff" transform="translate(443,85)"/>
<path d="M0 0 C5.94 0 11.88 0 18 0 C18 5.94 18 11.88 18 18 C12.06 18 6.12 18 0 18 C0 12.06 0 6.12 0 0 Z " fill="#ffffff" transform="translate(375,85)"/>
<path d="M0 0 C5.94 0 11.88 0 18 0 C18 5.94 18 11.88 18 18 C12.06 18 6.12 18 0 18 C0 12.06 0 6.12 0 0 Z " fill="#ffffff" transform="translate(119,85)"/>
<path d="M0 0 C5.94 0 11.88 0 18 0 C18 5.94 18 11.88 18 18 C12.06 18 6.12 18 0 18 C0 12.06 0 6.12 0 0 Z " fill="#ffffff" transform="translate(51,85)"/>
</svg>
